<?xml version="1.0" encoding="utf-8"?>
<!-- Generator: Adobe Illustrator 16.0.0, SVG Export Plug-In . SVG Version: 6.00 Build 0)  -->
<!DOCTYPE svg PUBLIC "-//W3C//DTD SVG 1.1//EN" "http://www.w3.org/Graphics/SVG/1.1/DTD/svg11.dtd">
<svg version="1.1" id="Layer_1" xmlns="http://www.w3.org/2000/svg" xmlns:xlink="http://www.w3.org/1999/xlink" x="0px" y="0px"
	 width="149.3px" height="30px" viewBox="0 0 149.3 30" enable-background="new 0 0 149.3 30" xml:space="preserve">
<g>
	<g>
		<path fill="#FFFFFF" d="M44.1,16.5h-1.9v4.6h-2.1V6.7h4.5c1.3,0.2,2.4,0.6,3.2,1.4c1.1,1,1.6,2.1,1.6,3.5c0,1.4-0.5,2.5-1.6,3.5
			c-0.7,0.7-1.3,1-1.7,1.1l3.5,4.9h-2.5L44.1,16.5z M42.2,8.6v6.1h1.9c0.9,0,1.7-0.3,2.3-0.9c0.7-0.6,1-1.3,1-2.2
			c0-0.8-0.3-1.5-1-2.1c-0.7-0.6-1.4-0.9-2.3-0.9H42.2z"/>
		<path fill="#FFFFFF" d="M60.3,12.5v-0.6h2.1v9.3h-2.1V20c-1,0.9-2.1,1.4-3.5,1.4c-1.6,0-2.9-0.5-4-1.5c-1.1-1-1.7-2.2-1.7-3.6
			c0-1.4,0.6-2.6,1.7-3.6c1.1-1,2.4-1.5,4-1.5C58.1,11.1,59.3,11.6,60.3,12.5z M60.3,16.9v-1.4c-0.1-0.6-0.4-1.1-1-1.6
			c-0.7-0.6-1.5-0.9-2.5-0.9c-1,0-1.8,0.3-2.5,0.9c-0.7,0.6-1,1.4-1,2.3c0,0.9,0.3,1.6,1,2.3c0.7,0.6,1.5,0.9,2.5,0.9
			c1,0,1.8-0.3,2.5-0.9C59.8,18.1,60.2,17.5,60.3,16.9z"/>
		<path fill="#FFFFFF" d="M64.3,21.2c0.7-0.1,1.1-0.3,1.1-0.6v-8.7h2.1v8.7c0,1.5-1.1,2.4-3.2,2.5V21.2z M67.5,8.4
			c0.3,0.3,0.4,0.6,0.4,0.9c0,0.4-0.1,0.7-0.4,0.9c-0.3,0.3-0.6,0.4-1,0.4c-0.4,0-0.7-0.1-1-0.4C65.2,10,65,9.7,65,9.4
			c0-0.4,0.1-0.7,0.4-0.9c0.3-0.3,0.6-0.4,1-0.4C66.9,8,67.2,8.2,67.5,8.4z"/>
		<path fill="#FFFFFF" d="M79.8,12.5v-0.6h2.1v9.3h-2.1V20c-1,0.9-2.1,1.4-3.5,1.4c-1.6,0-2.9-0.5-4-1.5c-1.1-1-1.7-2.2-1.7-3.6
			c0-1.4,0.6-2.6,1.7-3.6c1.1-1,2.4-1.5,4-1.5C77.6,11.1,78.8,11.6,79.8,12.5z M79.8,16.9v-1.4c-0.1-0.6-0.4-1.1-1-1.6
			c-0.7-0.6-1.5-0.9-2.5-0.9c-1,0-1.8,0.3-2.5,0.9c-0.7,0.6-1,1.4-1,2.3c0,0.9,0.3,1.6,1,2.3c0.7,0.6,1.5,0.9,2.5,0.9
			c1,0,1.8-0.3,2.5-0.9C79.3,18.1,79.6,17.5,79.8,16.9z"/>
		<path fill="#FFFFFF" d="M105.5,8.7c1.6,1.4,2.4,3.2,2.4,5.2c0,2-0.8,3.8-2.4,5.2c-1.6,1.4-3.5,2.2-5.7,2.2c-2.2,0-4.2-0.7-5.7-2.2
			c-1.6-1.4-2.4-3.2-2.4-5.2c0-2,0.8-3.8,2.4-5.2c1.6-1.4,3.5-2.2,5.7-2.2C102,6.5,103.9,7.2,105.5,8.7z M99.7,8.4
			c-1.7,0-3.1,0.5-4.3,1.6c-1.2,1.1-1.8,2.4-1.8,3.9c0,1.5,0.6,2.8,1.8,3.9c1.2,1.1,2.6,1.6,4.3,1.6c1.7,0,3.1-0.5,4.3-1.6
			c1.2-1.1,1.8-2.4,1.8-3.9c0-1.5-0.6-2.8-1.8-3.9C102.8,8.9,101.4,8.4,99.7,8.4z"/>
		<path fill="#FFFFFF" d="M113,13.7v7.4h-2.1v-7.4H110v-1.9h0.9v-1.7c0-0.8,0.4-1.4,1-2c0.6-0.5,1.3-0.8,2.2-0.8
			c0.4,0,1,0.1,1.9,0.4l-0.7,1.8c-0.6-0.2-0.9-0.3-1.1-0.3c-0.3,0-0.5,0.1-0.8,0.3c-0.2,0.2-0.3,0.4-0.3,0.7v1.6h1.8v1.9H113z"/>
		<path fill="#FFFFFF" d="M119,13.7v7.4H117v-7.4h-0.9v-1.9h0.9v-1.7c0-0.8,0.4-1.4,1-2c0.6-0.5,1.3-0.8,2.2-0.8
			c0.4,0,1,0.1,1.9,0.4l-0.7,1.8c-0.6-0.2-0.9-0.3-1.1-0.3c-0.3,0-0.5,0.1-0.8,0.3c-0.2,0.2-0.3,0.4-0.3,0.7v1.6h1.8v1.9H119z"/>
		<path fill="#FFFFFF" d="M124.9,19.2c0.2,0.2,0.5,0.3,0.9,0.3s0.6-0.1,0.9-0.3c0.2-0.2,0.4-0.5,0.4-0.8c0-0.3-0.1-0.6-0.4-0.8
			c-0.2-0.2-0.5-0.4-1.1-0.7c-0.7-0.4-1.3-0.7-1.6-1c-0.5-0.5-0.8-1.1-0.8-1.8c0-0.7,0.3-1.3,0.8-1.8c0.5-0.5,1.2-0.7,2-0.7
			s1.4,0.2,1.9,0.7c0.4,0.3,0.6,0.7,0.7,1.1l-2,0.5c0-0.2-0.1-0.2-0.1-0.3c-0.1-0.1-0.3-0.2-0.5-0.2c-0.2,0-0.4,0.1-0.5,0.2
			c-0.1,0.1-0.2,0.3-0.2,0.5c0,0.2,0.1,0.3,0.2,0.5c0.1,0.1,0.4,0.3,0.9,0.6c0.8,0.4,1.4,0.8,1.8,1.1c0.6,0.6,1,1.3,1,2.1
			c0,0.8-0.3,1.5-1,2.1s-1.4,0.9-2.3,0.9c-0.9,0-1.7-0.3-2.3-0.9c-0.4-0.4-0.7-0.9-0.9-1.5l2-0.4C124.7,18.8,124.8,19,124.9,19.2z"
			/>
		<path fill="#FFFFFF" d="M134.8,19.1c0.3,0.3,1,0.4,1.9,0.4c1,0,1.8-0.3,2.5-0.9c0.1-0.1,0.3-0.3,0.5-0.6l2.1,0.7
			c-0.5,0.6-0.9,1-1.1,1.3c-1.1,1-2.4,1.5-4,1.5c-1.6,0-2.9-0.5-4-1.5c-1.1-1-1.7-2.2-1.7-3.6c0-1.4,0.6-2.6,1.7-3.6
			c1.1-1,2.4-1.5,4-1.5c1.3,0,2.5,0.4,3.5,1.1c0.2,0.1,0.3,0.3,0.5,0.4c0.1,0.1,0.3,0.3,0.6,0.6l-1,0.9L134.8,19.1z M138.2,13.3
			c-0.2-0.2-0.8-0.2-1.6-0.2c-1,0-1.8,0.3-2.5,0.9c-0.7,0.6-1,1.4-1,2.3c0,0.7,0.1,1.2,0.3,1.4L138.2,13.3z"/>
		<path fill="#FFFFFF" d="M145.4,11.9V8.4h2.1v3.5h1.8v1.9h-1.8v7.4h-2.1v-7.4h-1.8v-1.9H145.4z"/>
	</g>
	<g>
		<g>
			<rect x="0.5" y="0.5" fill="#00FFFF" stroke="#3C435B" stroke-miterlimit="10" width="13" height="14"/>
			<rect x="14.5" y="0.5" fill="#FF00FF" stroke="#3C435B" stroke-miterlimit="10" width="13" height="14"/>
		</g>
		<g>
			<rect x="0.5" y="15.5" fill="#FFFF00" stroke="#3C435B" stroke-miterlimit="10" width="13" height="14"/>
			<rect x="14.5" y="15.5" stroke="#3C435B" stroke-miterlimit="10" width="13" height="14"/>
		</g>
	</g>
</g>
</svg>
